# xmcd
#
# Track frame offsets:
#	187
#	29900
#	43182
#	69232
#	94612
#	121395
#	148107
#	160687
#	171200
#	206275
#	221087
#	241812
#	268435
#	289030
#
# Disc length: 4063 seconds
#
# Revision: 1
# Processed by: cddbd v1.5.1PL0 Copyright (c) Steve Scherf et al.
# Submitted via: CDex 1.50Beta5
#
DISCID=d50fdd0e
DTITLE=許可 - 悲歌 胡弓無伴奏作品
DYEAR=1900
DGENRE=
TTITLE0=二泉映月
TTITLE1=聴松
TTITLE2=寒春風曲
TTITLE3=病中吟
TTITLE4=月夜
TTITLE5=苦悶の歌
TTITLE6=悲歌
TTITLE7=除夜小唱
TTITLE8=閑居吟
TTITLE9=空山鳥語
TTITLE10=光明行
TTITLE11=独弦操
TTITLE12=燭影揺虹
TTITLE13=空山鳥語(編曲:許可)
EXTD=
EXTT0=
EXTT1=
EXTT2=
EXTT3=
EXTT4=
EXTT5=
EXTT6=
EXTT7=
EXTT8=
EXTT9=
EXTT10=
EXTT11=
EXTT12=
EXTT13=
PLAYORDER=
